<?xml version="1.0" standalone="no"?>
<!DOCTYPE svg PUBLIC "-//W3C//DTD SVG 20010904//EN"
 "http://www.w3.org/TR/2001/REC-SVG-20010904/DTD/svg10.dtd">
<svg version="1.0" xmlns="http://www.w3.org/2000/svg"
 width="755.000000pt" height="276.000000pt" viewBox="0 0 755.000000 276.000000"
 preserveAspectRatio="xMidYMid meet">

<g transform="translate(0.000000,276.000000) scale(0.100000,-0.100000)"
fill="#000000" stroke="none">
<path d="M6107 2048 c-2 -7 13 -24 33 -38 104 -71 219 -197 275 -303 19 -36
45 -50 45 -24 0 7 -16 40 -36 72 -62 105 -144 194 -241 266 -56 42 -69 46 -76
27z"/>
<path d="M5812 2020 c2 -16 16 -26 57 -41 68 -24 172 -85 245 -145 112 -91
215 -243 261 -381 13 -41 21 -53 37 -53 18 0 20 4 14 32 -10 50 -68 178 -111
243 -102 156 -322 322 -478 361 -26 6 -28 4 -25 -16z"/>
<path d="M5460 1948 c0 -24 4 -26 89 -37 161 -20 288 -70 412 -162 192 -142
307 -347 334 -601 6 -54 8 -58 32 -58 l26 0 -7 71 c-15 146 -69 301 -147 416
-45 68 -164 188 -233 235 -122 84 -279 141 -426 154 l-80 7 0 -25z"/>
<path d="M1575 1536 c-93 -41 -123 -146 -59 -207 14 -13 53 -37 87 -54 70 -34
88 -68 45 -84 -26 -10 -104 1 -137 18 -16 9 -19 4 -29 -37 -5 -26 -8 -50 -6
-54 7 -10 101 -28 152 -28 57 0 127 33 156 73 25 34 27 103 3 138 -9 13 -51
42 -94 64 -42 22 -78 45 -80 51 -2 7 4 19 13 29 17 17 40 17 115 -1 23 -5 26
-2 36 40 l10 46 -36 10 c-50 14 -140 12 -176 -4z"/>
<path d="M1975 1538 c-48 -17 -93 -56 -117 -101 -32 -59 -32 -175 0 -234 65
-124 248 -153 359 -58 57 48 76 103 71 199 -3 63 -8 81 -33 117 -42 60 -103
89 -185 88 -36 0 -78 -5 -95 -11z m146 -114 c19 -20 24 -39 27 -92 3 -58 0
-72 -20 -102 -24 -36 -52 -46 -94 -36 -46 12 -75 108 -54 181 23 84 88 106
141 49z"/>
<path d="M2535 1534 c-16 -8 -38 -22 -47 -31 -16 -14 -18 -13 -24 11 -6 24
-10 26 -67 26 l-60 0 7 -61 c3 -34 6 -133 6 -220 l0 -159 65 0 65 0 0 135 c0
102 4 143 15 165 26 51 101 53 123 5 7 -16 12 -80 12 -165 l0 -140 71 0 71 0
-3 168 c-4 187 -13 215 -79 259 -40 27 -110 31 -155 7z"/>
<path d="M2898 1534 c-27 -8 -48 -18 -48 -22 0 -12 21 -82 24 -82 2 0 23 7 46
15 61 22 104 19 136 -8 15 -13 24 -28 21 -34 -4 -6 -35 -12 -70 -15 -122 -10
-187 -67 -187 -165 0 -59 28 -101 80 -123 41 -17 121 -8 158 18 29 21 30 21
35 2 4 -17 14 -20 65 -20 l61 0 -6 168 c-6 195 -18 228 -88 262 -50 24 -156
26 -227 4z m182 -258 c0 -48 -8 -65 -41 -81 -54 -29 -108 21 -80 74 11 20 55
38 99 40 19 1 22 -4 22 -33z"/>
<path d="M3449 1512 l-38 -39 -3 31 c-3 30 -4 31 -60 34 l-58 3 0 -221 0 -220
70 0 70 0 0 133 c0 103 3 137 15 154 16 23 88 49 105 38 6 -4 10 19 10 59 l0
66 -36 0 c-29 0 -44 -8 -75 -38z"/>
<path d="M3670 1532 c-48 -24 -83 -78 -77 -119 9 -51 33 -78 105 -112 37 -18
73 -40 80 -49 18 -23 15 -59 -8 -82 -24 -24 -97 -27 -140 -5 -28 14 -28 14
-39 -16 -10 -29 -9 -31 24 -45 43 -18 126 -18 168 0 74 31 106 109 70 174 -14
25 -41 45 -98 75 -72 38 -80 45 -83 74 -5 54 53 78 127 52 37 -13 37 -13 46
22 6 23 2 27 -33 37 -55 17 -101 15 -142 -6z"/>
<path d="M4046 1535 c-85 -30 -137 -110 -138 -213 -1 -143 78 -231 208 -232
80 0 151 41 186 109 55 104 30 253 -52 308 -62 43 -135 53 -204 28z m151 -77
c35 -32 53 -78 53 -138 0 -131 -101 -209 -196 -151 -94 57 -88 256 10 306 41
21 101 13 133 -17z"/>
<path d="M5004 1531 c-17 -10 -40 -32 -52 -47 l-21 -29 -1 43 c0 42 0 42 -36
42 -33 0 -36 -2 -30 -22 3 -13 6 -112 6 -220 l0 -198 40 0 40 0 0 140 c0 151
8 183 52 214 12 9 35 16 50 16 26 0 28 3 28 40 0 35 -3 40 -22 40 -13 0 -37
-9 -54 -19z"/>
<path d="M5254 1539 c-52 -12 -121 -71 -145 -123 -29 -63 -25 -150 9 -217 22
-45 36 -59 81 -81 38 -20 70 -28 105 -28 71 0 126 17 126 38 0 34 -14 42 -50
32 -51 -15 -79 -12 -126 11 -100 48 -113 215 -23 282 36 26 85 35 138 25 33
-6 47 -5 53 4 13 21 9 45 -8 52 -31 12 -120 15 -160 5z"/>
<path d="M5569 1522 c-75 -39 -109 -104 -109 -209 0 -154 85 -231 244 -221 90
6 115 18 108 53 -4 22 -9 25 -26 20 -11 -4 -48 -9 -81 -12 -92 -7 -156 36
-171 115 l-6 32 156 0 156 0 0 53 c0 56 -25 121 -56 149 -29 26 -89 48 -128
48 -18 0 -58 -13 -87 -28z m135 -42 c29 -11 51 -42 61 -87 l7 -33 -121 0 c-67
0 -121 2 -121 5 0 2 7 23 17 46 26 66 91 94 157 69z"/>
<path d="M4402 1368 c3 -193 10 -217 67 -255 62 -42 157 -25 208 35 l23 27 0
-37 c0 -37 1 -38 35 -38 l35 0 0 220 0 220 -40 0 -40 0 0 -147 c0 -164 -6
-184 -60 -221 -41 -27 -82 -23 -120 14 -24 24 -25 28 -28 189 l-3 165 -40 0
-40 0 3 -172z"/>
</g>
</svg>
